# xmcd
#
# Track frame offsets: 
#        150
#        18967
#        58441
#        77629
#        93119
#        116081
#        139317
#        167678
#        189534
#        232344
#
# Disc length: 3320 seconds
#
# Revision: 2
# Processed by: cddbd v1.5.2PL0 Copyright (c) Steve Scherf et al.
# Submitted via: ExactAudioCopyFreeDBPlugin 1.0
#
DISCID=880cf60a
DTITLE=Minnie Riperton - Perfect Angel (Deluxe Edition CD 2)
DYEAR=2017
DGENRE=R&B
TTITLE0=Reasons (Extended Version)
TTITLE1=It's So Nice (To See Old Friends) (Extended version)
TTITLE2=Take a Little Trip (Duet with Stevie Wonder)
TTITLE3=Seeing You This Way (Acoustic Version)
TTITLE4=The Edge of a Dream (Extended Version)
TTITLE5=Perfect Angel (Etended Version)
TTITLE6=Every Time He Comes Around (Extended Version)
TTITLE7=Lovin' You (Alternate Band Version)
TTITLE8=Our Lives (Extended Version)
TTITLE9=Don't Let Anyone Bring You Down (Perfect Angel Version)
EXTD=
EXTT0=
EXTT1=
EXTT2=
EXTT3=
EXTT4=
EXTT5=
EXTT6=
EXTT7=
EXTT8=
EXTT9=
PLAYORDER=
